<svg width="32" height="28" viewBox="0 0 32 28" fill="none" xmlns="http://www.w3.org/2000/svg">
<g clip-path="url(#clip0_43_41)">
<g clip-path="url(#clip1_43_41)">
<mask id="mask0_43_41" style="mask-type:luminance" maskUnits="userSpaceOnUse" x="12" y="1" width="20" height="22">
<path fill-rule="evenodd" clip-rule="evenodd" d="M25.9216 20.2018C29.4952 18.6768 32 15.1309 32 11C32 5.47715 27.5228 1 22 1C16.4772 1 12 5.47715 12 11C12 15.055 14.4135 18.5462 17.8824 20.1156V22.5686H25.9216V20.2018Z" fill="white"/>
</mask>
<g mask="url(#mask0_43_41)">
<path d="M25.9216 20.2018L25.1366 18.3623C24.3997 18.6767 23.9216 19.4006 23.9216 20.2018H25.9216ZM17.8824 20.1156H19.8824C19.8824 19.33 19.4225 18.6172 18.7068 18.2934L17.8824 20.1156ZM17.8824 22.5686H15.8824C15.8824 23.6732 16.7778 24.5686 17.8824 24.5686V22.5686ZM25.9216 22.5686V24.5686C27.0261 24.5686 27.9216 23.6732 27.9216 22.5686H25.9216ZM30 11C30 14.3016 27.9996 17.1406 25.1366 18.3623L26.7065 22.0413C30.9909 20.2131 34 15.9602 34 11H30ZM22 3C26.4183 3 30 6.58172 30 11H34C34 4.37258 28.6274 -1 22 -1V3ZM14 11C14 6.58172 17.5817 3 22 3V-1C15.3726 -1 10 4.37258 10 11H14ZM18.7068 18.2934C15.9273 17.0359 14 14.2409 14 11H10C10 15.869 12.8997 20.0565 17.0579 21.9378L18.7068 18.2934ZM19.8824 22.5686V20.1156H15.8824V22.5686H19.8824ZM25.9216 20.5686H17.8824V24.5686H25.9216V20.5686ZM23.9216 20.2018V22.5686H27.9216V20.2018H23.9216Z" fill="#CCF652"/>
</g>
<path d="M18.8823 25H24.9215" stroke="#CCF652" stroke-width="2" stroke-linecap="round" stroke-linejoin="round"/>
</g>
</g>
<defs>
<clipPath id="clip0_43_41">
<rect width="32" height="28" fill="white"/>
</clipPath>
<clipPath id="clip1_43_41">
<rect width="32" height="28" fill="white"/>
</clipPath>
</defs>
</svg>
