<svg width="127" height="22" viewBox="0 0 127 22" fill="none" xmlns="http://www.w3.org/2000/svg">
<g clip-path="url(#clip0_43_486)">
<g clip-path="url(#clip1_43_486)">
<path d="M24.4 17V2.6H30.35C30.49 2.6 30.67 2.60667 30.89 2.62C31.11 2.62667 31.3133 2.64667 31.5 2.68C32.3333 2.80667 33.02 3.08333 33.56 3.51C34.1067 3.93667 34.51 4.47667 34.77 5.13C35.0367 5.77667 35.17 6.49667 35.17 7.29C35.17 8.46333 34.8733 9.47333 34.28 10.32C33.6867 11.16 32.7767 11.68 31.55 11.88L30.52 11.97H26.81V17H24.4ZM32.67 17L29.83 11.14L32.28 10.6L35.4 17H32.67ZM26.81 9.72H30.25C30.3833 9.72 30.5333 9.71333 30.7 9.7C30.8667 9.68667 31.02 9.66 31.16 9.62C31.56 9.52 31.8733 9.34333 32.1 9.09C32.3333 8.83667 32.4967 8.55 32.59 8.23C32.69 7.91 32.74 7.59667 32.74 7.29C32.74 6.98333 32.69 6.67 32.59 6.35C32.4967 6.02333 32.3333 5.73333 32.1 5.48C31.8733 5.22667 31.56 5.05 31.16 4.95C31.02 4.91 30.8667 4.88667 30.7 4.88C30.5333 4.86667 30.3833 4.86 30.25 4.86H26.81V9.72ZM41.7731 17.3C40.6931 17.3 39.7498 17.0567 38.9431 16.57C38.1365 16.0833 37.5098 15.4133 37.0631 14.56C36.6231 13.7 36.4031 12.7133 36.4031 11.6C36.4031 10.4667 36.6298 9.47333 37.0831 8.62C37.5365 7.76667 38.1665 7.1 38.9731 6.62C39.7798 6.14 40.7131 5.9 41.7731 5.9C42.8598 5.9 43.8065 6.14333 44.6131 6.63C45.4198 7.11667 46.0465 7.79 46.4931 8.65C46.9398 9.50333 47.1631 10.4867 47.1631 11.6C47.1631 12.72 46.9365 13.71 46.4831 14.57C46.0365 15.4233 45.4098 16.0933 44.6031 16.58C43.7965 17.06 42.8531 17.3 41.7731 17.3ZM41.7731 15.04C42.7331 15.04 43.4465 14.72 43.9131 14.08C44.3798 13.44 44.6131 12.6133 44.6131 11.6C44.6131 10.5533 44.3765 9.72 43.9031 9.1C43.4298 8.47333 42.7198 8.16 41.7731 8.16C41.1265 8.16 40.5931 8.30667 40.1731 8.6C39.7598 8.88667 39.4531 9.29 39.2531 9.81C39.0531 10.3233 38.9531 10.92 38.9531 11.6C38.9531 12.6467 39.1898 13.4833 39.6631 14.11C40.1431 14.73 40.8465 15.04 41.7731 15.04ZM53.4564 17.3C52.3431 17.3 51.3931 17.0533 50.6064 16.56C49.8197 16.06 49.2164 15.38 48.7964 14.52C48.3831 13.66 48.1731 12.6867 48.1664 11.6C48.1731 10.4933 48.3897 9.51333 48.8164 8.66C49.2497 7.8 49.8631 7.12667 50.6564 6.64C51.4497 6.14667 52.3931 5.9 53.4864 5.9C54.7131 5.9 55.7497 6.21 56.5964 6.83C57.4497 7.44333 58.0064 8.28333 58.2664 9.35L55.8664 10C55.6797 9.42 55.3697 8.97 54.9364 8.65C54.5031 8.32333 54.0097 8.16 53.4564 8.16C52.8297 8.16 52.3131 8.31 51.9064 8.61C51.4997 8.90333 51.1997 9.31 51.0064 9.83C50.8131 10.35 50.7164 10.94 50.7164 11.6C50.7164 12.6267 50.9464 13.4567 51.4064 14.09C51.8664 14.7233 52.5497 15.04 53.4564 15.04C54.0964 15.04 54.5997 14.8933 54.9664 14.6C55.3397 14.3067 55.6197 13.8833 55.8064 13.33L58.2664 13.88C57.9331 14.98 57.3497 15.8267 56.5164 16.42C55.6831 17.0067 54.6631 17.3 53.4564 17.3ZM59.6503 17L59.6703 2.6H62.1103V11.4L66.0603 6.2H69.0703L64.8803 11.6L69.4303 17H66.2403L62.1103 11.8V17H59.6503ZM74.5467 17.3C73.4534 17.3 72.4934 17.0633 71.6667 16.59C70.8401 16.1167 70.1934 15.46 69.7267 14.62C69.2667 13.78 69.0367 12.8133 69.0367 11.72C69.0367 10.54 69.2634 9.51667 69.7167 8.65C70.1701 7.77667 70.8001 7.1 71.6067 6.62C72.4134 6.14 73.3467 5.9 74.4067 5.9C75.5267 5.9 76.4767 6.16333 77.2567 6.69C78.0434 7.21 78.6267 7.94667 79.0067 8.9C79.3867 9.85333 79.5301 10.9767 79.4367 12.27H77.0467V11.39C77.0401 10.2167 76.8334 9.36 76.4267 8.82C76.0201 8.28 75.3801 8.01 74.5067 8.01C73.5201 8.01 72.7867 8.31667 72.3067 8.93C71.8267 9.53667 71.5867 10.4267 71.5867 11.6C71.5867 12.6933 71.8267 13.54 72.3067 14.14C72.7867 14.74 73.4867 15.04 74.4067 15.04C75.0001 15.04 75.5101 14.91 75.9367 14.65C76.3701 14.3833 76.7034 14 76.9367 13.5L79.3167 14.22C78.9034 15.1933 78.2634 15.95 77.3967 16.49C76.5367 17.03 75.5867 17.3 74.5467 17.3ZM70.8267 12.27V10.45H78.2567V12.27H70.8267ZM87.398 17C86.6846 17.1333 85.9846 17.19 85.298 17.17C84.618 17.1567 84.008 17.0333 83.468 16.8C82.928 16.56 82.518 16.1833 82.238 15.67C81.9913 15.2033 81.8613 14.7267 81.848 14.24C81.8346 13.7533 81.828 13.2033 81.828 12.59V3.2H84.228V12.45C84.228 12.8833 84.2313 13.2633 84.238 13.59C84.2513 13.9167 84.3213 14.1833 84.448 14.39C84.688 14.79 85.0713 15.0133 85.598 15.06C86.1246 15.1067 86.7246 15.08 87.398 14.98V17ZM79.868 8.09V6.2H87.398V8.09H79.868ZM90.2473 21.8L92.3273 16.09L92.3673 17.77L87.6573 6.2H90.1673L93.5073 14.76H92.8673L96.1173 6.2H98.5273L92.5073 21.8H90.2473ZM98.4188 17V16.67L104.139 8.31H98.9988V6.2H107.889V6.54L102.189 14.89H107.649V17H98.4188ZM113.592 17.3C112.499 17.3 111.539 17.0633 110.712 16.59C109.885 16.1167 109.239 15.46 108.772 14.62C108.312 13.78 108.082 12.8133 108.082 11.72C108.082 10.54 108.309 9.51667 108.762 8.65C109.215 7.77667 109.845 7.1 110.652 6.62C111.459 6.14 112.392 5.9 113.452 5.9C114.572 5.9 115.522 6.16333 116.302 6.69C117.089 7.21 117.672 7.94667 118.052 8.9C118.432 9.85333 118.575 10.9767 118.482 12.27H116.092V11.39C116.085 10.2167 115.879 9.36 115.472 8.82C115.065 8.28 114.425 8.01 113.552 8.01C112.565 8.01 111.832 8.31667 111.352 8.93C110.872 9.53667 110.632 10.4267 110.632 11.6C110.632 12.6933 110.872 13.54 111.352 14.14C111.832 14.74 112.532 15.04 113.452 15.04C114.045 15.04 114.555 14.91 114.982 14.65C115.415 14.3833 115.749 14 115.982 13.5L118.362 14.22C117.949 15.1933 117.309 15.95 116.442 16.49C115.582 17.03 114.632 17.3 113.592 17.3ZM109.872 12.27V10.45H117.302V12.27H109.872ZM120.113 17V6.2H122.243V8.83L121.983 8.49C122.117 8.13 122.293 7.80333 122.513 7.51C122.74 7.21 123.01 6.96333 123.323 6.77C123.59 6.59 123.883 6.45 124.203 6.35C124.53 6.24333 124.863 6.18 125.203 6.16C125.543 6.13333 125.873 6.14667 126.193 6.2V8.45C125.873 8.35667 125.503 8.32667 125.083 8.36C124.67 8.39333 124.297 8.51 123.963 8.71C123.63 8.89 123.357 9.12 123.143 9.4C122.937 9.68 122.783 10 122.683 10.36C122.583 10.7133 122.533 11.0967 122.533 11.51V17H120.113Z" fill="white"/>
<path d="M0 2H15L5 17H0V2Z" fill="#CCF652"/>
<path d="M9 11H15V17H9V11Z" fill="#CCF652"/>
</g>
</g>
<defs>
<clipPath id="clip0_43_486">
<rect width="127" height="22" fill="white"/>
</clipPath>
<clipPath id="clip1_43_486">
<rect width="127" height="22" fill="white"/>
</clipPath>
</defs>
</svg>
